<?xml version="1.0" encoding="UTF-8"?>
<svg id="Layer_1" xmlns="http://www.w3.org/2000/svg" version="1.1" viewBox="0 0 60 60">
  <!-- Generator: Adobe Illustrator 29.2.1, SVG Export Plug-In . SVG Version: 2.1.0 Build 116)  -->
  <path d="M29.9999996,7.9411765c8.4290684,0,13.1503924,6.4151472,13.1503924,14.3286526,0,5.2864939-2.117157,9.8923773-6.0288957,12.3757351,7.1886265,2.6490918,12.2816411,9.234241,12.2816411,17.4132594H10.5968617c0-8.1790184,5.0929659-14.7641676,12.2816411-17.4132594-3.9117387-2.4833578-6.0288957-7.0892413-6.0288957-12.3757351,0-7.9135053,4.7213728-14.3286526,13.1503924-14.3286526M29.9999996,0C17.7787244,0,8.9084307,9.365809,8.9084307,22.269829c0,3.8017138.7600375,7.3351495,2.1894483,10.4221647-5.3088696,4.8927599-8.4421929,11.8026318-8.4421929,19.3668298,0,4.3857833,3.5553915,7.9411765,7.9411756,7.9411765h38.8062758c4.3857866,0,7.9411765-3.5553932,7.9411765-7.9411765,0-7.5641812-3.1333385-14.4740497-8.4422022-19.3668164,1.4294108-3.0870152,2.1894533-6.6204643,2.1894533-10.4221782C51.0915651,9.365809,42.2212731,0,29.9999996,0h0Z"/>
  <path d="M27.5276428,19.4864953l1.4058738-3.7993165c.3663435-.9900285,1.7666233-.9900285,2.1329669,0l1.4058738,3.7993165c.1151771.3112614.3605876.5566719.671849.671849l3.7993165,1.4058738c.9900285.3663435.9900285,1.7666233,0,2.1329669l-3.7993165,1.4058738c-.3112614.1151771-.5566719.3605876-.671849.671849l-1.4058738,3.7993165c-.3663435.9900285-1.7666233.9900285-2.1329669,0l-1.4058738-3.7993165c-.1151771-.3112614-.3605876-.5566719-.671849-.671849l-3.7993165-1.4058738c-.9900285-.3663435-.9900285-1.7666233,0-2.1329669l3.7993165-1.4058738c.3112614-.1151771.5566719-.3605876.671849-.671849Z"/>
</svg>