<?xml version="1.0" encoding="UTF-8"?>
<svg id="Layer_1" xmlns="http://www.w3.org/2000/svg" version="1.1" viewBox="0 0 60 60">
  <!-- Generator: Adobe Illustrator 29.2.1, SVG Export Plug-In . SVG Version: 2.1.0 Build 116)  -->
  <path d="M43.2683087,35.5943284c3.1468622-3.4363988,4.9827686-8.2615143,4.9827686-13.9379954,0-11.4946627-7.5053477-19.5228943-18.2513336-19.5228943S11.748407,10.1616703,11.748407,21.656333c0,5.6764811,1.8358418,10.5016611,4.982703,13.9379954-7.43721,3.2970234-11.73111,9.6654731-11.73111,18.214199,0,2.241374,1.8166599,4.0580339,4.0575172,4.0580339h41.8844489c2.241374,0,4.0580339-1.8166599,4.0580339-4.0580339,0-8.5486613-4.2943521-14.9171756-11.7316913-18.214199ZM19.8634405,21.656333c0-5.515082,2.6629879-11.4078598,10.1363012-11.4078598s10.1352678,5.8927778,10.1352678,11.4078598-2.6619545,11.4073431-10.1352678,11.4073431-10.1363012-5.8922611-10.1363012-11.4073431ZM13.707155,49.7504934c2.4526966-7.6489857,11.8961249-8.5707495,16.2925866-8.5707495,4.3959451,0,13.83989.9217638,16.2931043,8.5707495H13.707155Z"/>
  <path d="M30.4429271,17.9513717l3.4336015-1.578832c.8947307-.4114134,1.8184239.5122798,1.4070065,1.4070105l-1.578832,3.4336015c-.1293485.281298-.1293485.6050689,0,.8863709l1.578832,3.4336015c.4114094.8947307-.5122838,1.8184239-1.4070105,1.4070105l-3.4336015-1.578832c-.281298-.1293485-.6050689-.1293485-.8863709,0l-3.4336015,1.578832c-.8947307.4114134-1.8184239-.5122798-1.4070105-1.4070105l1.578832-3.4336015c.1293485-.281298.1293485-.6050689,0-.8863709l-1.578832-3.4336015c-.4114134-.8947307.5122798-1.8184239,1.4070105-1.4070105l3.4336015,1.578832c.281298.1293485.6050689.1293485.886375,0Z"/>
</svg>