<?xml version="1.0" encoding="UTF-8"?>
<svg id="Layer_1" xmlns="http://www.w3.org/2000/svg" version="1.1" viewBox="0 0 60 60">
  <!-- Generator: Adobe Illustrator 29.2.1, SVG Export Plug-In . SVG Version: 2.1.0 Build 116)  -->
  <path d="M21.7984169,56.0375485c-.4940711,0-.9881422,0-1.4822133-.2964457-1.3834006-.5928838-2.3715427-1.9762843-2.3715427-3.4584976v-8.0039501c-7.2134371-.3952584-12.944661-6.4229241-12.944661-13.7351777v-12.8458483c0-7.6086955,6.1264822-13.7351777,13.7351777-13.7351777h22.5296446c7.6086917,0,13.7351777,6.1264822,13.7351777,13.7351777v12.8458483c0,7.6086917-6.1264785,13.7351777-13.7351777,13.7351777h-6.2252987l-10.6719347,10.6719385c-.6917003.6916965-1.6798424,1.0869549-2.6679846,1.0869549h.0988127ZM18.8339904,11.571147c-3.3596849,0-6.1264822,2.7667973-6.1264822,6.1264822v12.8458483c0,3.3596849,2.7667973,6.1264785,6.1264822,6.1264785h3.0632392c2.0750971,0,3.7549395,1.6798387,3.7549395,3.7549433v2.6679809l5.3359692-5.3359692c.6917003-.6916965,1.6798424-1.0869549,2.6679846-1.0869549h7.8063247c3.3596849,0,6.1264785-2.7667973,6.1264785-6.1264822v-12.8458483c0-3.3596849-2.7668011-6.1264822-6.1264785-6.1264822h-22.5296408l-.0988165.0000038Z"/>
  <path d="M30.5928838,20.8596849l3.656123-1.6798424c.9881422-.3952584,1.9762843.5928838,1.4822133,1.4822133l-1.6798424,3.6561268c-.0988127.2964419-.0988127.6917003,0,.9881422l1.6798424,3.6561268c.3952584.9881422-.5928838,1.9762843-1.4822133,1.4822133l-3.6561268-1.6798424c-.2964419-.0988127-.6917003-.0988127-.9881422,0l-3.6561268,1.6798424c-.9881422.3952584-1.9762843-.5928838-1.4822133-1.4822133l1.6798424-3.6561268c.0988127-.2964419.0988127-.6917003,0-.9881422l-1.6798424-3.6561268c-.3952584-.9881422.5928838-1.9762843,1.4822133-1.4822133l3.6561268,1.6798424c.2964419.0988127.6917003.0988127.9881459,0Z"/>
</svg>