<?xml version="1.0" encoding="UTF-8"?>
<svg id="Layer_1" xmlns="http://www.w3.org/2000/svg" version="1.1" viewBox="0 0 60 60">
  <!-- Generator: Adobe Illustrator 29.2.1, SVG Export Plug-In . SVG Version: 2.1.0 Build 116)  -->
  <path d="M41.7552617,8.2398007c5.7168101,0,10.351219,4.6344072,10.351219,10.3512439v13.3494635c0,5.7203164-4.6372511,10.3575675-10.3575675,10.3575675h-8.0946091l-8.8780286,8.8780269c-.4034712.4034712-.8996082.5840845-1.3862224.5840845-1.0182356,0-1.9949521-.7906495-1.9949521-1.9846208v-7.4774906h-3.1503626c-5.7168101,0-10.3512182-4.6344089-10.3512182-10.351219v-13.3494635c0-5.720343,4.6372486-10.3575924,10.3575667-10.3575924h23.5041748M41.7552617.3462803h-23.5041748C8.187411.3462803,0,8.5336911,0,18.5973931v13.3494635c0,8.420132,5.7336426,15.5263587,13.50158,17.619548v.2091616c0,5.4468299,4.4359554,9.8781535,9.8884698,9.8781535,2.6256874,0,5.1002278-1.0285154,6.96779-2.8960511l6.5660736-6.5660736h4.8249998c10.0636775,0,18.2510868-8.1874093,18.2510868-18.2510868v-13.3494635C60,8.5308493,51.8154561.3462803,41.7552617.3462803h0Z"/>
  <path d="M33.1016397,23.5250366l3.7478804,1.3868408c.9766252.3613839.9766252,1.7427064,0,2.1040902l-3.7478804,1.3868408c-.3070475.1136178-.5491355.3557058-.6627533.6627533l-1.3868408,3.7478804c-.3613839.9766252-1.7427064.9766252-2.1040902,0l-1.3868408-3.7478804c-.1136178-.3070475-.3557058-.5491355-.6627533-.6627533l-3.7478804-1.3868408c-.9766252-.3613839-.9766252-1.7427064,0-2.1040902l3.7478804-1.3868408c.3070475-.1136178.5491355-.3557058.6627533-.6627533l1.3868408-3.7478804c.3613839-.9766252,1.7427064-.9766252,2.1040902,0l1.3868408,3.7478804c.1136178.3070475.3557058.5491355.6627533.6627533Z"/>
</svg>