<?xml version="1.0" encoding="UTF-8"?>
<svg id="Layer_1" xmlns="http://www.w3.org/2000/svg" version="1.1" viewBox="0 0 60 60">
  <!-- Generator: Adobe Illustrator 29.2.1, SVG Export Plug-In . SVG Version: 2.1.0 Build 116)  -->
  <path d="M40.1871447,10.4636643c4.3293475.0003674,8.6178966,2.1859328,11.0320235,6.3378876l.0000236.0000228c2.4352795,4.1883367,2.2844171,9.3954359-.3892848,13.4357565v.000022c-4.4853318,6.7779839-10.0382483,12.7852445-16.443294,17.7887061h-.0000203c-1.2888851,1.0068432-2.8377404,1.5102664-4.3865992,1.5102664s-3.0977141-.5034233-4.3865975-1.5102664h-.0000203c-6.4050441-5.0034615-11.9579598-11.0107222-16.4432957-17.7887044v-.000022c-2.673696-4.0403206-2.8245631-9.2474198-.3892553-13.4357573v-.0000228c2.4143972-4.1524016,6.7022123-6.3379906,11.0320277-6.3378876,3.3071458.000079,6.6389191,1.2752918,9.1783553,3.9231745l1.0087892,1.0518825,1.0087892-1.0518825c2.5397927-2.6482552,5.8707567-3.9234549,9.1783587-3.9231745M40.1877325,3.4305869c-3.6563991-.0003096-7.1474219.9811188-10.1878303,2.8224663-3.0399726-1.8409044-6.5307757-2.8223888-10.1869063-2.8224663-7.0274733-.000184-13.5844876,3.7686507-17.112175,9.8357619-3.8065973,6.5467635-3.5751024,14.5368718.6041094,20.8522528,4.9134575,7.4249332,10.9624111,13.9688479,17.9788275,19.4498941,2.4773669,1.9351976,5.5728174,3.0009174,8.7162356,3.0009174,3.1434891,0,6.2389633-1.0657435,8.716217-3.0009174,7.0164147-5.4810226,13.0653692-12.0249135,17.9788551-19.4498704,4.1792148-6.3154064,4.410708-14.3055129.6041525-20.8522537-3.5272535-6.0663295-10.0839895-9.835187-17.1114856-9.8357847h0Z"/>
  <path d="M32.5115432,31.0300641l-1.467094,3.883323c-.3822952,1.0119189-1.8171516,1.0021501-2.1856352-.0148803l-1.4140834-3.9029387c-.1158497-.3197495-.3656084-.5729323-.6837508-.6931249l-3.883325-1.4670921c-1.0119189-.3822972-1.0021501-1.8171535.0148803-2.1856332l3.9029387-1.4140834c.3197515-.1158497.5729323-.3656084.6931249-.6837508l1.467094-3.883323c.3822952-1.0119189,1.8171516-1.0021501,2.1856352.0148803l1.4140834,3.9029387c.1158497.3197515.3656084.5729323.6837508.6931249l3.883323,1.467094c1.0119189.3822972,1.0021501,1.8171535-.0148803,2.1856332l-3.9029387,1.4140815c-.3197515.1158497-.5729323.3656084-.693123.6837509Z"/>
</svg>