<?xml version="1.0" encoding="UTF-8"?>
<svg id="Layer_1" xmlns="http://www.w3.org/2000/svg" version="1.1" viewBox="0 0 60 60">
  <!-- Generator: Adobe Illustrator 29.2.1, SVG Export Plug-In . SVG Version: 2.1.0 Build 116)  -->
  <path d="M30.0000001,52.3447026c-.9298091,0-1.8215472-.3699713-2.4780265-1.0288911l-18.1617821-18.2223051c-4.5919389-4.6070696-5.6725674-11.5862505-2.6883928-17.3661974,2.3291595-4.5123804,6.7370889-7.5029001,11.7912478-7.9997745,4.2688241-.4153635,8.4395424.9986296,11.5374417,3.8476036,3.0969231-2.848974,7.2622724-4.2658956,11.5369536-3.8476036,5.0536708.4968743,9.4620883,3.4873941,11.7912478,7.9997745,2.9841746,5.7799469,1.9035461,12.7591278-2.689369,17.3661974l-18.1617821,18.2223051c-.6559913.6589198-1.5477294,1.0288911-2.4775385,1.0288911ZM19.9639194,14.6510734c-.2699131,0-.5422666.0131784-.8165725.0400233-2.722559.2674726-5.0033977,1.815202-6.2582738,4.245884-1.5833599,3.0676377-1.0098556,6.7717432,1.4271715,9.2170678l15.6837555,15.735981,15.6842436-15.735981c2.4375152-2.4453246,3.0105314-6.1494301,1.4261953-9.2165797v-.0004881c-1.2543881-2.4306819-3.5357148-3.9784113-6.2572977-4.245884-2.7206066-.2689369-5.2606205.8058345-6.9650263,2.9465917l-1.1509133,1.4452308c-.6638007.8336556-1.6712159,1.3193039-2.7372017,1.3193039h-.0004881c-1.0654977,0-2.0729129-.4861364-2.7367136-1.319792l-1.1504252-1.4452308c-1.5321106-1.9240458-3.7397359-2.9861269-6.1484539-2.9861269Z"/>
  <path d="M30.4186556,24.5369088l3.2435739-1.4914552c.8452127-.3886444,1.7177861.4839291,1.3291417,1.3291417l-1.4914552,3.2435739c-.1221884.2657319-.1221884.5715831,0,.837315l1.4914552,3.2435739c.3886444.8452127-.4839291,1.7177861-1.3291417,1.3291417l-3.2435739-1.4914552c-.2657319-.1221884-.5715831-.1221884-.837315,0l-3.2435739,1.4914552c-.8452127.3886444-1.7177861-.4839291-1.3291417-1.3291417l1.4914552-3.2435739c.1221884-.2657319.1221884-.5715831,0-.837315l-1.4914552-3.2435739c-.3886444-.8452127.4839291-1.7177861,1.3291417-1.3291417l3.2435739,1.4914552c.2657319.1221884.5715831.1221884.837315,0Z"/>
</svg>