<?xml version="1.0" encoding="UTF-8"?>
<svg id="Layer_1" xmlns="http://www.w3.org/2000/svg" version="1.1" viewBox="0 0 60 59.2">
  <!-- Generator: Adobe Illustrator 29.3.0, SVG Export Plug-In . SVG Version: 2.1.0 Build 146)  -->
  <path d="M.7,30.5l3.8,1.4c.3,0,.6.4.7.7l1.4,3.8c.4,1,1.8,1,2.1,0l1.4-3.8c0-.3.4-.6.7-.7l3.8-1.4c1-.4,1-1.8,0-2.1l-3.8-1.4c-.3,0-.6-.4-.7-.7l-1.4-3.8c-.4-1-1.8-1-2.1,0l-1.4,3.8c0,.3-.4.6-.7.7l-3.8,1.4c-1,.4-1,1.8,0,2.1Z"/>
  <path d="M59,47.2c-.4-.6-8.7-13.8-24.9-15.7v-5.4c.4,0,.7.2,1.1.2h1.9c4.4,0,8.9-1.9,12.3-5.3,3.9-3.9,5.9-9.2,5.2-14.2-.5-3.5-3.2-6.3-6.8-6.8-.6,0-1.3-.1-1.9-.1-4.4,0-8.9,1.9-12.3,5.3-3.4,3.4-2.6,3.1-3.5,4.8-.9-1.7-2-3.4-3.5-4.8C23.2,1.9,18.7,0,14.3,0s-1.3,0-1.9.1c-3.5.5-6.3,3.2-6.8,6.8-.7,5,1.3,10.3,5.2,14.2s7.9,5.3,12.3,5.3,1.3,0,1.9,0,.7,0,1.1-.2v5.4c-16.1,1.9-24.5,15.1-24.9,15.7-1.5,2.4-1.6,5.5-.2,8s4,4,6.9,4h44.2c2.9,0,5.5-1.5,6.9-4s1.3-5.6-.2-8h.2ZM30.2,39.1c14.5,0,22.1,12.2,22.1,12.2H8.1s7.6-12.2,22.1-12.2ZM24.1,18.5h-.9c-2.2,0-4.7-1-6.7-3s-3.3-5.2-3-7.6h.9c2.2,0,4.7,1,6.7,3s3.3,5.2,3,7.6ZM46,7.9h.9c.3,2.4-.7,5.3-3,7.6s-4.5,3-6.7,3-.6,0-.9,0c-.3-2.4.7-5.3,3-7.6,2-2,4.5-3,6.7-3Z"/>
</svg>