<?xml version="1.0" encoding="UTF-8"?>
<svg xmlns="http://www.w3.org/2000/svg" version="1.1" viewBox="0 0 50.9 63.6">
  <!-- Generator: Adobe Illustrator 28.7.1, SVG Export Plug-In . SVG Version: 1.2.0 Build 142)  -->
  <g>
    <g id="Layer_1">
      <path d="M50.8,51.1l-1-3.8h0s-2.2-8.1-2.2-8.1h0s0,0,0,0L37.9,3.1c-.6-2.2-2.9-3.5-5.1-2.9L6.1,7.3c0,0,0,0-.1,0h0C1.7,8.5-.9,12.9.3,17.1l10.5,39.3s0,0,0,0l.3,1s0,0,0,0h0s0,0,0,0c1.2,4.4,5.8,7,10.2,5.9l26.6-7.1c2.2-.6,3.5-2.9,2.9-5.1ZM26.1,15.7l.5-.4c.3-.2.5-.6.5-1v-.5c.1-1.2,1.7-1.7,2.4-.6l.3.4c.2.3.6.5.9.6h.6c1.2.2,1.6,1.7.6,2.4l-.5.4c-.3.2-.5.6-.5,1v.5c-.1,1.2-1.7,1.7-2.4.6l-.3-.4c-.2-.3-.6-.5-.9-.6h-.6c-1.2-.2-1.6-1.7-.6-2.4ZM17.7,30.8l3.1-2.2c.3-.2.5-.6.5-1l.3-3.7c.1-1.2,1.7-1.7,2.4-.6l2.1,3.1c.2.3.6.5.9.6l3.8.4c1.2.1,1.6,1.7.6,2.4l-3.1,2.2c-.3.2-.5.6-.5,1l-.3,3.7c-.1,1.2-1.7,1.7-2.4.6l-2.1-3.1c-.2-.3-.6-.5-.9-.6l-3.8-.4c-1.2-.1-1.6-1.7-.6-2.4ZM20,59.3c-2.2.6-4.5-.7-5.1-2.9-.6-2.2.7-4.5,2.9-5.1l26.8-7.2h.2s2.1,8,2.1,8l-26.9,7.2Z"/>
    </g>
  </g>
</svg>