<?xml version="1.0" encoding="UTF-8"?>
<svg id="Layer_1" xmlns="http://www.w3.org/2000/svg" version="1.1" viewBox="0 0 50.1907349 60">
  <!-- Generator: Adobe Illustrator 29.2.1, SVG Export Plug-In . SVG Version: 2.1.0 Build 116)  -->
  <path d="M42.2495575,7.9411764v44.1176462H7.9411764V7.9411764h34.3083811M42.2495575,0H7.9411764C3.5553923,0,0,3.5553932,0,7.9411764v44.1176462c0,4.385788,3.5553923,7.9411774,7.9411764,7.9411774h34.3083811c4.385788,0,7.9411774-3.5553894,7.9411774-7.9411774V7.9411764c0-4.3857832-3.5553894-7.9411764-7.9411774-7.9411764h0Z"/>
  <g>
    <path d="M22.6548252,18.3495979l3.7993164,1.4058743c.9900303.3663425.9900303,1.7666225,0,2.132967l-3.7993164,1.4058743c-.3112621.1151772-.5566711.3605881-.6718483.6718483l-1.4058743,3.7993164c-.3663445.9900284-1.7666225.9900284-2.132967,0l-1.4058743-3.7993164c-.1151772-.3112621-.3605881-.5566711-.6718483-.6718483l-3.7993164-1.4058743c-.9900284-.3663445-.9900284-1.7666225,0-2.132967l3.7993164-1.4058743c.3112621-.1151772.5566711-.3605881.6718483-.6718483l1.4058743-3.7993164c.3663425-.9900284,1.7666225-.9900284,2.132967,0l1.4058743,3.7993164c.1151772.3112621.3605881.5566711.6718483.6718483Z"/>
    <path d="M33.8243217,36.7056847l3.7993164,1.4058723c.9900284.3663445.9900284,1.7666245,0,2.1329651l-3.7993164,1.4058723c-.3112602.1151772-.5566711.3605881-.6718483.6718483l-1.4058723,3.7993164c-.3663445.9900284-1.7666245.9900284-2.1329689,0l-1.4058723-3.7993164c-.1151772-.3112602-.3605881-.5566711-.6718483-.6718483l-3.7993164-1.4058723c-.9900284-.3663445-.9900284-1.7666245,0-2.1329651l3.7993164-1.4058723c.3112602-.1151772.5566711-.3605881.6718483-.6718483l1.4058723-3.7993164c.3663445-.9900284,1.7666245-.9900284,2.1329651,0l1.4058723,3.7993164c.1151772.3112602.3605881.5566711.6718521.6718483Z"/>
  </g>
</svg>