<?xml version="1.0" encoding="UTF-8"?>
<svg xmlns="http://www.w3.org/2000/svg" version="1.1" viewBox="0 0 500 500">
  <!-- Generator: Adobe Illustrator 28.7.1, SVG Export Plug-In . SVG Version: 1.2.0 Build 142)  -->
  <g>
    <g id="Layer_1">
      <path d="M250,0C111.9,0,0,111.9,0,250s111.9,250,250,250,250-111.9,250-250S388.1,0,250,0ZM131.1,320c-38.7,0-70.1-31.3-70.1-70s31.4-70,70.1-70,47.1,13.2,59.5,33c-6.7,10.7-10.6,23.4-10.6,37s3.9,26.3,10.6,37c-12.4,19.8-34.4,33-59.5,33ZM250,320c-25.1,0-47.1-13.2-59.5-33,6.7-10.7,10.6-23.4,10.6-37s-3.9-26.3-10.6-37c12.4-19.8,34.4-33,59.5-33s47.1,13.2,59.5,33c-6.7,10.7-10.6,23.4-10.6,37s3.9,26.3,10.6,37c-12.4,19.8-34.4,33-59.5,33ZM368.9,320c-25.1,0-47.1-13.2-59.5-33,6.7-10.7,10.6-23.4,10.6-37s-3.9-26.3-10.6-37c12.4-19.8,34.4-33,59.5-33,38.7,0,70.1,31.3,70.1,70s-31.4,70-70.1,70Z"/>
    </g>
  </g>
</svg>