<?xml version="1.0" encoding="UTF-8"?>
<svg id="Layer_1" xmlns="http://www.w3.org/2000/svg" version="1.1" viewBox="0 0 60 57.2">
  <!-- Generator: Adobe Illustrator 29.3.0, SVG Export Plug-In . SVG Version: 2.1.0 Build 146)  -->
  <path d="M31.4,0c-2.1,0-3.8,1.7-3.8,3.8s.5,2.2,1.4,2.9c.7.5,1.5.9,2.4.9,11.6,0,21.1,9.5,21.1,21.1s-9.5,21.1-21.1,21.1-19-7.3-20.8-17.3c-.2-.9-.6-1.7-1.3-2.2-.8-.7-1.9-1-3.1-.8-2,.4-3.4,2.3-3,4.4,2.5,13.6,14.3,23.5,28.2,23.5s28.6-12.8,28.6-28.6S47.2,0,31.4,0Z"/>
  <path d="M27.9,29.3s0,0,0,.1c.1.6.4,1.3.9,1.8l8.5,8.9c.7.8,1.7,1.2,2.7,1.2s1.9-.3,2.6-1c1.5-1.4,1.6-3.8.1-5.3l-7.8-8.2v-10c0-2-1.6-3.6-3.6-3.6s-3.6,1.6-3.6,3.6v11.8c0,0,0,.2,0,.3,0,.1,0,.3,0,.4Z"/>
  <path d="M11.7,9.1l3.4,1.3c.3.1.5.3.6.6l1.3,3.4c.3.9,1.6.9,1.9,0l1.3-3.4c.1-.3.3-.5.6-.6l3.4-1.3c.9-.3.9-1.6,0-1.9l-3.4-1.3c-.3-.1-.5-.3-.6-.6l-1.3-3.4c-.3-.9-1.6-.9-1.9,0l-1.3,3.4c-.1.3-.3.5-.6.6l-3.4,1.3c-.9.3-.9,1.6,0,1.9Z"/>
  <path d="M4.7,22l1.3,3.4c.3.9,1.6.9,1.9,0l1.3-3.4c.1-.3.3-.5.6-.6l3.4-1.3c.9-.3.9-1.6,0-1.9l-3.4-1.3c-.3-.1-.5-.3-.6-.6l-1.3-3.4c-.3-.9-1.6-.9-1.9,0l-1.3,3.4c-.1.3-.3.5-.6.6l-3.4,1.3c-.9.3-.9,1.6,0,1.9l3.4,1.3c.3.1.5.3.6.6Z"/>
</svg>