<?xml version="1.0" encoding="UTF-8"?>
<svg id="Layer_1" xmlns="http://www.w3.org/2000/svg" version="1.1" viewBox="0 0 500 500">
  <!-- Generator: Adobe Illustrator 29.2.1, SVG Export Plug-In . SVG Version: 2.1.0 Build 116)  -->
  <defs>
    <style>
      .st0 {
        fill: #fff;
      }
    </style>
  </defs>
  <path class="st0" d="M423.3102913,217.9278983c18.4403567-10.1759373,35.4738413-23.4044292,49.3562505-39.3051433,15.002184-17.2993596,28.7278501-39.0498994,19.0651032-62.4543087-3.5421382-8.7772918-9.5327106-15.6454702-15.6272485-22.7688926-4.9747631-5.7221738-6.6156369-10.1759373-5.5998276-18.9506459,2.0316186-17.8088142,7.2407014-29.3839135,17.7892213-43.502868,6.615319-8.7765169,1.4062362-22.6410222-7.2407014-27.7289909-10.4181656-6.1055663-21.1227927-1.5265158-27.7384296,7.2502594-10.6785562,14.1189545-17.7889034,29.7641863-20.9663676,47.1903829-1.9276531,10.6846169-3.568209,21.3700087-2.0576895,32.1814627,1.6669447,11.1917068,6.8760275,20.0966306,14.0124455,28.7463104,3.6724924,4.4511603,9.4023563,9.7930813,10.0274208,13.1008401,1.0418802,4.8340362-4.9486923,11.9574784-8.5169013,16.1533749-11.9547561,14.6297206-26.5661952,26.2043032-42.9749333,35.2342359-22.9197737,12.3403344-2.4220455,47.4443353,20.4716573,34.853983Z"/>
  <path class="st0" d="M69.9235881,376.4142194c-26.8397802,8.9049436-47.319227,31.5462043-58.8938891,56.8597668-7.8865908,17.1717476-10.4284986,36.5052295,2.672262,51.8954558,10.9391057,12.848239,28.8739423,13.7363966,44.3918204,14.4995253,17.8071848.890701,35.4868767,1.0183528,53.296764.2552241,10.5561504-.3802529,20.8596997-9.0299724,20.351795-20.3518745-.5104481-10.6838419-8.9049436-20.7321671-20.351795-20.3519143-16.9191862.6355167-33.9633217.6381397-50.8798055-.127612-4.0708677-.1250288-8.1417354-.3802529-12.2100596-.7631287-5.7247769-.5078649,2.9248631.7631287-.6380999,0-1.5262575-.3802529-3.0525149-.7631287-4.7064241-1.1433816-3.8155641-.8907805,3.563122,2.2893862.5104481.2552241-4.5787724-3.0550981,1.9066693,2.2893862-.3827964-.2552241,1.9090538,2.5446103,2.1618139,2.9249029,1.0183528,1.1433816-1.0183528-1.9065103-.7630492-1.3986454.6355564,1.5262575-.2553036-.7631287-.3802529-1.5262575-.5079047-2.2893862.3802529,3.4353908.5079047,4.0709074.3802529,1.7815213,0-.7631287,0-1.6539092.1276518-2.417038-.5079047,3.3077787-.5079047,3.8156834-.1276518,1.6539092.5104481-1.6539092.890701-3.3077787,1.3986057-4.9616482.2553036-.7631685.6380999-1.6512862.89086-2.414415-1.1434611,2.6696391-1.3987646,3.3051557-.7632082,1.9065103.6380999-1.2710334,1.2736564-2.6696391,2.0367056-3.9432557,1.6539092-3.0525546,3.3078185-5.9774575,5.086677-8.9023604.89086-1.4012287,1.9092128-2.9274861,2.7999138-4.3261315.3802529-.5078649,3.1801667-3.6880316,3.0525149-4.1985195-1.9090538,2.417038-2.1643574,2.7998741-.7630492,1.0183925.5079047-.6355167,1.1433021-1.2710334,1.6537503-1.9065501.8881575-1.0183528,1.6513657-1.9091333,2.5420668-2.7998741,2.2894657-2.4169982,4.8340759-4.7063844,7.3786862-6.8681585,1.6539092-1.3986454,1.2711129-1.0183925-1.1460046.8907408.6380999-.5078649,1.3986057-1.0183925,2.0367056-1.3986454,1.3987646-.8907408,2.7973703-1.7814815,4.195976-2.672262.890701-.5078649,3.9432159-1.3986454,4.453823-2.2893862-2.9275656,1.1460046-3.4354702,1.3986454-1.4013081.6355167.7632082-.2526408,1.5262575-.5079047,2.4169585-.7631287,10.0484047-3.3077787,17.6822355-14.1192327,14.1192724-24.9306866-3.0525149-10.0483252-13.9916206-17.8072245-24.6754228-14.2468447Z"/>
  <path class="st0" d="M235.4199829,66.1799927c-99.2199707,0-227.9500122,53.9299927-225.6599731,194.4899902,1.5299683,146.0200195,116.3900146,198.2999878,233.4199829,198.2999878,116.3699951,0,212.4000244-95.2699585,212.4000244-192.8299561,0-132.0400391-105.4299927-200.7200317-220.1600342-199.960022ZM250.8099976,144.1499634c10.289978-4.8299561,23.0300293.5100098,28.3699951,11.960022,2.4199829,4.960022,3.039978,10.6900024,1.9000244,16.0300293-1.4100342,6.0999756-5.3400269,11.0599976-10.6799927,13.6099854-2.5500488,1.1400146-5.210022,1.7799683-8.0200195,1.7799683-3.1799927,0-6.3599854-.7699585-9.2800293-2.289978-4.7099609-2.4199829-8.6399536-6.4899902-11.0699463-11.5800171-5.3400269-11.4400024-1.4000244-24.6699829,8.7799683-29.5100098ZM121.3200073,228.4899902c-2.4199829-5.0900269-3.0599976-10.6900024-1.9100342-15.9000244,1.4000244-6.1099854,5.3400269-11.0700073,10.6800537-13.6099854,5.3499756-2.5499878,11.7099609-2.4199829,17.2999878.3800049,4.8299561,2.4099731,8.6499634,6.4899902,11.0700073,11.7000122,2.4099731,5.0899658,3.0499878,10.6799927,1.9099731,15.8999634-1.4000244,6.1100464-5.3499756,11.0700073-10.6900024,13.6100464-2.539978,1.1499634-5.210022,1.7799683-8.0100098,1.7799683-3.1799927,0-6.3599854-.7600098-9.289978-2.289978-4.7000122-2.4199829-8.6500244-6.4899902-11.0599976-11.5700073ZM272.9500122,342.2000122c-79.8800049,36.8899536-135.3500366-24.8000488-131.5300293-43.3800049,3.8099976-18.5700073,165.6000366-90.5599976,181.6400146-85.7300415,15.8900146,4.9700317,34.9799805,89.9299927-50.1099854,129.1100464Z"/>
</svg>