<?xml version="1.0" encoding="UTF-8"?>
<svg id="Layer_1" xmlns="http://www.w3.org/2000/svg" version="1.1" viewBox="0 0 60 60">
  <!-- Generator: Adobe Illustrator 29.2.1, SVG Export Plug-In . SVG Version: 2.1.0 Build 116)  -->
  <path d="M12.0995914,55.0007099c-.9343422,0-1.8686843-.3737383-2.5227245-1.0277749l-3.5504995-3.550503c-.8409094-.8409094-1.2146441-2.1489898-.9343422-3.3636303l6.9141342-28.1236974c.3737383-1.4015132,1.4015132-2.4292882,2.8030265-2.7095937l13.1742211-2.5227245,4.2045397-7.0075661c.5606039-.9343422,1.494946-1.5883824,2.6161609-1.6818152,1.1212077-.0934328,2.1489898.2803019,2.989892,1.0277749l16.164115,16.1641203c.7474766.747473,1.1212077,1.8686843,1.0277749,2.9898956s-.7474766,2.0555534-1.6818187,2.6161573l-7.0075661,4.2045415-2.522721,13.1742265c-.2803055,1.4015132-1.3080804,2.522721-2.7095937,2.8030265l-28.1236974,6.9141334c-.2803019,0-.5606039.0934328-.8409013.0934292ZM12.4733262,46.6850633l.747473.7474766,23.9191532-5.8863584,2.3358554-12.5201863c.1868656-1.0277749.8409094-1.8686843,1.6818187-2.4292882l4.4848452-2.7095937-9.623727-9.6237235-2.7095937,4.4848416c-.5606039.8409094-1.4015132,1.494946-2.4292882,1.6818152l-12.5201863,2.3358554s-5.8863548,23.9191612-5.8863504,23.9191612ZM30.2258279,16.8795446h0Z"/>
  <path d="M23.124829,32.6699275l-1.5883824-3.4570667c-.3737383-.9343422.5606039-1.8686843,1.4015132-1.4015132l3.4570667,1.5883824c.2803019.0934328.6540402.0934328.9343422,0l3.4570667-1.5883824c.9343422-.3737383,1.8686825.5606039,1.4015114,1.4015132l-1.5883824,3.4570667c-.0934328.2803019-.0934328.6540402,0,.9343422l1.5883824,3.4570595c.3737383.9343422-.5606039,1.8686843-1.4015132,1.4015132l-3.4570667-1.5883788c-.2803019-.0934328-.6540402-.0934328-.9343422,0l-3.4570667,1.5883788c-.9343422.3737383-1.8686843-.5606039-1.4015132-1.4015132l1.5883824-3.4570667c.0934328-.2803019.0934328-.6540402.0000018-.934335Z"/>
</svg>