<?xml version="1.0" encoding="UTF-8"?>
<svg id="Layer_1" xmlns="http://www.w3.org/2000/svg" version="1.1" viewBox="0 0 60 60">
  <!-- Generator: Adobe Illustrator 29.2.1, SVG Export Plug-In . SVG Version: 2.1.0 Build 116)  -->
  <path d="M39.8372216,7.2727168c1.0301624-.0000121,2.0669694.3884203,2.8687286,1.1901777l8.8340897,8.8341157c1.8220797,1.8220797,1.5093994,4.8583238-.6457936,6.2708126l-4.0450702,2.6511001c-.8327484.5457895-1.4361017,1.3783732-1.6954803,2.3396648l-3.3849958,12.5454311c-.3576799,1.3255483-1.3606262,2.3807907-2.666293,2.805311l-26.5082303,8.6187327c-.4120705.1339826-.8357794.199207-1.2557394.199207-1.0610199,0-2.0991897-.415965-2.8732785-1.1900676-1.0805511-1.0805511-1.4633733-2.6760066-.9908121-4.1292121l8.6198077-26.5072957c.4245203-1.3054796,1.4795685-2.3082785,2.8049052-2.6660052l12.5451901-3.3861481c.9609569-.2593786,1.7932545-.862464,2.3389712-1.6948804l2.6522272-4.0454786c.7910087-1.2065428,2.0909951-1.8354494,3.4017736-1.835465M39.8373118,0c-3.8364618,0-7.3818899,1.9142823-9.4840204,5.1207178l-1.9828588,3.0244879-11.3665666,3.068024c-3.7115062,1.0017941-6.637105,3.7825116-7.8259554,7.4384211L.5581011,45.158924c-1.3253593,4.075789-.2661011,8.4903092,2.7644729,11.5208607,2.1409589,2.1410508,4.987753,3.3202154,8.0158631,3.3202154,1.1914097,0,2.3704286-.1869132,3.50433-.5555517l26.5083691-8.6187778c3.6565121-1.1888781,6.4374888-4.1148341,7.4391659-7.8269853l3.0668917-11.3664625,3.023633-1.9816485c2.8660791-1.8783968,4.7112204-4.9107655,5.0622489-8.3195217.3510562-3.4087805-.8373191-6.7535165-3.2604564-9.1766269l-8.8340619-8.8341146c-2.1411479-2.1411483-4.9862462-3.3203109-8.0112456-3.3203109h0Z"/>
  <path d="M23.8355985,31.5865034l-1.7437045-3.7921585c-.4543757-.9881632.5657758-2.0083147,1.553939-1.553939l3.7921585,1.7437045c.310675.1428541.6682547.1428541.9789298,0l3.7921585-1.7437045c.9881632-.4543757,2.0083147.5657758,1.553939,1.553939l-1.7437045,3.7921585c-.1428541.310675-.1428541.6682547,0,.9789298l1.7437045,3.7921585c.4543757.9881632-.5657758,2.0083147-1.553939,1.553939l-3.7921585-1.7437045c-.310675-.1428541-.6682547-.1428541-.9789298,0l-3.7921585,1.7437045c-.9881632.4543757-2.0083147-.5657758-1.553939-1.553939l1.7437045-3.7921585c.1428541-.310675.1428541-.6682547,0-.9789298Z"/>
</svg>