<?xml version="1.0" encoding="UTF-8"?>
<svg id="Layer_1" xmlns="http://www.w3.org/2000/svg" version="1.1" viewBox="0 0 60 60">
  <!-- Generator: Adobe Illustrator 29.2.1, SVG Export Plug-In . SVG Version: 2.1.0 Build 116)  -->
  <defs>
    <style>
      .st0 {
        fill: #231f20;
      }
    </style>
  </defs>
  <path class="st0" d="M39.8,7.3c1,0,2.1.4,2.9,1.2l8.8,8.8c1.8,1.8,1.5,4.9-.6,6.3l-4,2.7c-.8.5-1.4,1.4-1.7,2.3l-3.4,12.5c-.4,1.3-1.4,2.4-2.7,2.8l-26.5,8.6c-.4,0-.8.2-1.3.2-1.1,0-2.1-.4-2.9-1.2-1.1-1.1-1.5-2.7-1-4.1l8.6-26.5c.4-1.3,1.5-2.3,2.8-2.7l12.5-3.4c1-.3,1.8-.9,2.3-1.7l2.7-4c.8-1.2,2.1-1.8,3.4-1.8M39.8,0c-3.8,0-7.4,1.9-9.5,5.1l-2,3-11.4,3.1c-3.7,1-6.6,3.8-7.8,7.4L.6,45.2c-1.3,4.1-.3,8.5,2.8,11.5,2.1,2.1,5,3.3,8,3.3s2.4-.2,3.5-.6l26.5-8.6c3.7-1.2,6.4-4.1,7.4-7.8l3.1-11.4,3-2c2.9-1.9,4.7-4.9,5.1-8.3.4-3.4-.8-6.8-3.3-9.2l-8.8-8.8c-2.2-2.1-5-3.3-8.1-3.3h0Z"/>
  <path class="st0" d="M23.8,31.6l-1.7-3.8c-.5-1,.6-2,1.6-1.6l3.8,1.7c.3.1.7.1,1,0l3.8-1.7c1-.5,2,.6,1.6,1.6l-1.7,3.8c0,.3,0,.7,0,1l1.7,3.8c.5,1-.6,2-1.6,1.6l-3.8-1.7c-.3,0-.7,0-1,0l-3.8,1.7c-1,.5-2-.6-1.6-1.6l1.7-3.8c.1-.3.1-.7,0-1Z"/>
</svg>