<svg xmlns="http://www.w3.org/2000/svg" version="1.1" xmlns:xlink="http://www.w3.org/1999/xlink" xmlns:svgjs="http://svgjs.dev/svgjs" width="1000" height="1000"><g clip-path="url(#SvgjsClipPath1188)"><rect width="1000" height="1000" fill="#7500c8"></rect><g transform="matrix(1.6666666666666667,0,0,1.6666666666666667,0,0)"><svg xmlns="http://www.w3.org/2000/svg" version="1.1" xmlns:xlink="http://www.w3.org/1999/xlink" xmlns:svgjs="http://svgjs.dev/svgjs" width="600" height="600"><svg id="Layer_1" xmlns="http://www.w3.org/2000/svg" version="1.1" viewBox="0 0 600 600">
  <!-- Generator: Adobe Illustrator 29.3.1, SVG Export Plug-In . SVG Version: 2.1.0 Build 151)  -->
  <defs>
    <style>
      .st0 {
        fill: #ffd7e6;
      }

      .st1 {
        fill: #7500c8;
      }
    </style>
  <clipPath id="SvgjsClipPath1188"><rect width="1000" height="1000" x="0" y="0" rx="350" ry="350"></rect></clipPath></defs>
  <circle class="st1" cx="300" cy="300" r="300"></circle>
  <g>
    <path class="st0" d="M356.45,168.44c5.8,0,12.17,2.32,16.81,6.95l51,51c10.43,10.43,8.69,28.4-3.48,36.51l-23.18,15.65c-4.64,2.9-8.11,8.11-9.85,13.33l-19.71,72.45c-2.32,7.53-8.11,13.91-15.65,16.23l-153.59,49.84c-2.32,0-4.64,1.16-7.53,1.16-6.38,0-12.17-2.32-16.81-6.95-6.38-6.38-8.69-15.65-5.8-23.76l49.84-153.59c2.32-7.53,8.69-13.33,16.23-15.65l72.45-19.71c5.8-1.74,10.43-5.22,13.33-9.85l15.65-23.18c4.64-6.95,12.17-10.43,19.71-10.43M356.45,126.13c-22.02,0-42.89,11.01-55.06,29.56l-11.59,17.39-66.07,17.97c-21.44,5.8-38.25,22.02-45.21,42.89l-49.26,154.17c-7.53,23.76-1.74,49.26,16.23,66.65,12.17,12.17,28.98,19.13,46.37,19.13s13.91-1.16,20.28-3.48l153.59-49.84c21.44-6.95,37.09-23.76,42.89-45.21l17.97-66.07,17.39-11.59c16.81-11.01,27.24-28.4,29.56-48.1,2.32-19.71-4.64-39.41-19.13-53.32l-51-51c-12.75-12.17-28.98-19.13-46.95-19.13h0Z"></path>
    <path class="st0" d="M263.72,309.27l-9.85-22.02c-2.9-5.8,3.48-11.59,9.27-9.27l22.02,9.85c1.74.58,4.06.58,5.8,0l22.02-9.85c5.8-2.9,11.59,3.48,9.27,9.27l-9.85,22.02v5.8l9.85,22.02c2.9,5.8-3.48,11.59-9.27,9.27l-22.02-9.85h-5.8l-22.02,9.85c-5.8,2.9-11.59-3.48-9.27-9.27l9.85-22.02c.58-1.74.58-4.06,0-5.8Z"></path>
  </g>
</svg></svg></g></g></svg>